<svg width="48" height="48" fill="none" xmlns="http://www.w3.org/2000/svg">
  <mask id="a" style="mask-type:alpha" maskUnits="userSpaceOnUse" x="0" y="0" width="48" height="48">
    <path fill="#D9D9D9" d="M0 0h48v48H0z"/>
  </mask>
  <g mask="url(#a)">
    <path d="m37.45 15.9-1.85-4.3-4.5-2 4.5-1.9 1.85-4.15L39.3 7.7l4.5 1.9-4.5 2-1.85 4.3Zm0 28.5-1.85-4.15-4.5-1.95 4.5-1.95L37.45 32l1.85 4.35 4.5 1.95-4.5 1.95-1.85 4.15ZM16.8 36.35l-3.95-8.5-8.65-3.9 8.65-3.85 3.95-8.45 3.95 8.45 8.65 3.85-8.65 3.9-3.95 8.5Zm0-5.6 2.25-4.65 4.75-2.15-4.75-2.1-2.25-4.65-2.25 4.65-4.8 2.1 4.8 2.15 2.25 4.65Z" fill="#164DFF"/>
  </g>
</svg>
